<mxfile host="app.diagrams.net" modified="2024-07-19T11:23:39.242Z" agent="Mozilla/5.0 (Macintosh; Intel Mac OS X 10_15_7) AppleWebKit/537.36 (KHTML, like Gecko) Chrome/126.0.0.0 Safari/537.36 Edg/126.0.0.0" version="24.0.1" etag="xEE3OqtY7nfxZ9xboWOY" type="github">
  <diagram name="Page-1" id="kWTIwhcQHqzGvz7tP68b">
    <mxGraphModel>
      <root>
        <mxCell id="0" />
        <mxCell id="1" parent="0" />
      </root>
    </mxGraphModel>
  </diagram>
</mxfile>
